<?xml version="1.0" encoding="utf-8" ?>
<svg xmlns="http://www.w3.org/2000/svg" xmlns:xlink="http://www.w3.org/1999/xlink" width="33" height="33">
	<defs>
		<linearGradient id="gradient_0" gradientUnits="userSpaceOnUse" x1="194.72195" y1="763.56537" x2="434.29642" y2="567.82568">
			<stop offset="0" stop-color="#00F7AC"/>
			<stop offset="1" stop-color="#3FB4C6"/>
		</linearGradient>
	</defs>
	<path fill="url(#gradient_0)" transform="matrix(0.0322266 0 0 0.0322266 0 7.62939e-06)" d="M201.367 274.465C201.155 275.343 201.281 275.795 200.514 276.323C199.35 277.124 198.486 277.588 198.058 279.008L197.913 279.475C197.807 280.238 198.272 281.302 198.498 282.001L198.979 282.417C199.805 283.213 200.329 284.095 200.37 285.261L200.345 285.806C200.807 286.503 201.381 287.453 202.25 287.701L202.858 287.735C204.37 287.93 207.604 290.295 208.4 291.601L208.692 292.242C209.206 293.347 209.871 293.721 210.773 294.508C211.527 295.166 211.934 295.958 212.453 296.795C212.899 297.513 213.484 298.068 213.989 298.733L214.357 299.309C214.848 300.056 215.523 300.662 216.076 301.42L216.5 301.761C217.822 302.893 218.622 304.616 219.897 305.886C220.469 306.456 220.895 307.037 221.371 307.682C222.884 309.731 225.99 312.201 226.739 314.498C227.262 316.102 229.92 318.045 230.998 319.502C231.976 320.827 233.125 321.911 234.034 323.316C234.433 323.934 234.25 323.698 234.868 324.131C236.443 325.235 238.338 328.45 239.544 330.125C240.077 330.865 239.834 330.58 240.447 331.128C241.475 332.044 242.244 333.188 243.073 334.279C243.543 334.897 243.975 335.197 244.492 335.733C246.633 337.954 247.695 341.472 250.507 342.802L250.697 343.358C251.639 345.387 253.943 347.162 255.192 349.242L255.563 349.851C256.662 351.782 256.702 352.613 256.317 354.73L256.805 354.761C258.669 355.002 259.848 356.553 261.519 357.306C261.445 358.68 260.911 359.468 260.208 360.595L260.685 360.257C261.691 359.578 262.423 359.417 263.502 359.002L264.136 358.623C265.01 358.109 264.555 358.279 265.649 358.153L266.091 358.476C262.102 361.903 257.005 364.717 254.303 369.357L254.082 513.322L320.068 513.23L319.969 545.533L230.23 640.355L511.512 845.089L605.859 776.536C605.554 778.437 605.05 779.339 606.225 781.038C606.843 781.931 607.408 782.315 608.306 782.876L608.339 783.734C608.414 784.98 608.925 785.923 609.499 787.003L610.02 786.996C612.153 787.225 615.249 789.325 616.439 791.139C617.352 792.529 617.986 794.133 619.368 795.123C620.956 796.259 621.937 798.846 623.549 800.324C624.17 800.894 623.864 800.563 624.371 801.309L630.08 808.444C631.212 809.847 632.147 810.805 633.396 812.026C634.157 812.769 634.793 813.814 635.579 814.617C637.28 816.355 638.503 819.514 640.427 820.707C641.793 821.555 642.166 822.817 643.029 824.096C644.11 825.699 645.658 827.035 646.897 828.526C648.334 830.258 649.075 832.452 650.991 833.692C652.284 834.528 652.615 835.929 653.529 837.096C657.687 842.403 662.207 846.839 665.692 852.751L665.55 853.563C665.378 854.662 665.382 854.219 665.55 855.227C666.651 855.96 667.663 856.848 669.035 856.878L671.328 859.035L671.272 860.265L671.896 860.583C672.594 860.945 672.38 860.745 672.688 861.089L564.73 941.068L539.887 959.269C534.05 963.681 528.281 968.653 522.087 972.539C519.519 974.15 516.535 975.159 513.5 975.397C509.449 975.715 505.375 974.411 502.008 972.23C494.542 967.393 487.449 961.503 480.34 956.133L443.819 929.007L302.012 824.25L198.11 747.71L171.388 728.214C166.349 724.592 161.001 721.266 156.321 717.182C153.161 714.426 150.494 711.316 149.161 707.255C147.065 700.87 148.167 692.165 148.202 685.496L148.404 655.316L148.538 648.339C148.551 647.685 148.789 646.055 148.599 645.465C148.32 644.598 147.049 643.264 146.428 642.518L130.314 624.231L76.0252 562.284L62.5705 546.947C59.2476 543.296 55.5696 539.72 52.7309 535.674C51.0735 533.313 50.2665 530.902 50.177 528C50.0509 523.908 50.9988 520.173 53.9259 517.233C56.089 515.061 58.8516 513.446 61.9141 512.986C64.7449 512.561 67.8794 512.94 70.75 512.966L86.9773 513.012L149.431 513.079L149.468 374.424L149.384 342.026C149.29 334.479 148.367 326.28 149.686 318.822C150.241 315.684 151.875 312.65 153.984 310.287C159.325 304.306 167.331 299.528 173.782 294.766L201.367 274.465Z"/>
	<defs>
		<linearGradient id="gradient_1" gradientUnits="userSpaceOnUse" x1="465.34097" y1="552.47021" x2="826.17938" y2="258.02411">
			<stop offset="0" stop-color="#45ACCA"/>
			<stop offset="1" stop-color="#A04BF1"/>
		</linearGradient>
	</defs>
	<path fill="url(#gradient_1)" transform="matrix(0.0322266 0 0 0.0322266 0 7.62939e-06)" d="M224.98 257.2C233 250.541 241.831 244.545 250.236 238.351L294.81 205.503L398.086 128.909L469.3 75.7621L490.495 59.9899C494.325 57.1295 498.019 53.9126 502.084 51.3965C505.737 49.1354 509.948 48.2046 514.239 48.693C517.382 49.0507 520.272 50.0081 522.89 51.8033L544 67.5066L607.7 114.56L758.478 226.354L822.736 273.967L850.241 294.006C856.845 298.825 865.08 303.579 869.968 310.163C871.795 312.623 873.499 316.233 874.031 319.25C875.016 324.824 874.397 331.365 874.395 337.062L874.292 371.202C874.277 372.885 873.558 380.398 874.327 381.576C875.809 383.845 878.583 386.189 880.456 388.209L899.502 408.308L952.526 465.229L965.332 478.621C967.779 481.191 970.843 483.957 972.576 487.065C974.325 490.202 974.823 493.942 974.309 497.467C973.609 502.267 970.381 506.732 966.5 509.526C963.868 511.42 960.373 512.014 957.198 512.331C948.908 513.158 939.999 512.453 931.651 512.424L875.513 512.01L875.705 640.941L875.896 681.683C875.933 688.844 876.475 696.383 875.752 703.496C875.371 707.245 874.386 710.264 871.625 712.963C865.75 718.705 857.938 723.24 851.348 728.165L804.41 763.157L722.278 824.302L705.202 836.943C703.546 838.164 701.183 840.447 699.334 841.207L672.688 861.089C672.38 860.745 672.594 860.945 671.896 860.583L671.272 860.265L671.328 859.035L669.035 856.878C667.663 856.848 666.651 855.96 665.55 855.227C665.382 854.219 665.378 854.662 665.55 853.563L665.692 852.751C662.207 846.839 657.687 842.403 653.529 837.096C652.615 835.929 652.284 834.528 650.991 833.692C649.075 832.452 648.334 830.258 646.897 828.526C645.658 827.035 644.11 825.699 643.029 824.096C642.166 822.817 641.793 821.555 640.427 820.707C638.503 819.514 637.28 816.355 635.579 814.617C634.793 813.814 634.157 812.769 633.396 812.026C632.147 810.805 631.212 809.847 630.08 808.444L624.371 801.309C623.864 800.563 624.17 800.894 623.549 800.324C621.937 798.846 620.956 796.259 619.368 795.123C617.986 794.133 617.352 792.529 616.439 791.139C615.249 789.325 612.153 787.225 610.02 786.996L609.499 787.003C608.925 785.923 608.414 784.98 608.339 783.734L608.306 782.876C607.408 782.315 606.843 781.931 606.225 781.038C605.05 779.339 605.554 778.437 605.859 776.536L633.405 756.516C633.865 755.416 722.373 690.817 731.404 684.261L752 669.464C756.506 666.228 761.284 663.092 765.265 659.211C766.481 658.026 768.987 655.673 769.259 653.937C769.818 650.359 769.306 645.761 769.304 642.1L769.292 614.658L769.31 512.412L706.648 512.485C706.32 511.7 706.331 511.931 706.288 511.2C705.798 502.972 706.104 494.566 706.092 486.322C706.088 483.692 705.533 479.671 706.081 477.177C706.718 474.277 783.179 394.725 792.632 384.247L512.143 179.625L292.65 339.286L275.799 351.652C272.7 353.913 269.448 356.648 266.091 358.476L265.649 358.153C264.555 358.279 265.01 358.109 264.136 358.623L263.502 359.002C262.423 359.417 261.691 359.578 260.685 360.257L260.208 360.595C260.911 359.468 261.445 358.68 261.519 357.306C259.848 356.553 258.669 355.002 256.805 354.761L256.317 354.73C256.702 352.613 256.662 351.782 255.563 349.851L255.192 349.242C253.943 347.162 251.639 345.387 250.697 343.358L250.507 342.802C247.695 341.472 246.633 337.954 244.492 335.733C243.975 335.197 243.543 334.897 243.073 334.279C242.244 333.188 241.475 332.044 240.447 331.128C239.834 330.58 240.077 330.865 239.544 330.125C238.338 328.45 236.443 325.235 234.868 324.131C234.25 323.698 234.433 323.934 234.034 323.316C233.125 321.911 231.976 320.827 230.998 319.502C229.92 318.045 227.262 316.102 226.739 314.498C225.99 312.201 222.884 309.731 221.371 307.682C220.895 307.037 220.469 306.456 219.897 305.886C218.622 304.616 217.822 302.893 216.5 301.761L216.076 301.42C215.523 300.662 214.848 300.056 214.357 299.309L213.989 298.733C213.484 298.068 212.899 297.513 212.453 296.795C211.934 295.958 211.527 295.166 210.773 294.508C209.871 293.721 209.206 293.347 208.692 292.242L208.4 291.601C207.604 290.295 204.37 287.93 202.858 287.735L202.25 287.701C201.381 287.453 200.807 286.503 200.345 285.806L200.37 285.261C200.329 284.095 199.805 283.213 198.979 282.417L198.498 282.001C198.272 281.302 197.807 280.238 197.913 279.475L198.058 279.008C198.486 277.588 199.35 277.124 200.514 276.323C201.281 275.795 201.155 275.343 201.367 274.465L201.362 274.439L224.98 257.2Z"/>
	<path fill="#41B0C7" transform="matrix(0.0322266 0 0 0.0322266 0 7.62939e-06)" d="M224.98 257.2C226.255 256.939 226.953 257.097 227.75 256L228.255 256.5L226.755 258L227.502 260.498L228.035 260.812L230.25 262.245L229.755 262.75L230.5 263.25L230.255 264.25L231.75 266.245L232.5 266.25L232.877 267C233.276 267.664 233.953 268.21 234.5 268.75L234.502 269.498L235.5 270.25L235.502 270.998C236.174 271.669 235.976 271.743 237 271.75L236.755 272.75C237.687 273.216 238.288 273.487 239 274.25L239.002 274.998L239.316 275.405L241.75 278.745L242.5 278.75C243.149 279.399 243.499 279.419 243.502 280.375L244.5 281.25L244.502 281.998C245.174 282.669 244.976 282.743 246 282.75L245.755 283.75C246.687 284.216 247.288 284.487 248 285.25L248.002 285.875L249 286.75L249.002 287.498L250 287.75L250.377 288.5C250.776 289.164 251.453 289.71 252 290.25L252.002 290.998L253 291.75L253.002 292.498C253.674 293.169 253.476 293.243 254.5 293.25L254.877 294C255.276 294.664 255.953 295.21 256.5 295.75L256.502 296.375L257.5 297.25L257.502 297.998C258.174 298.669 257.976 298.743 259 298.75L258.755 299.75C259.687 300.216 260.288 300.487 261 301.25L261.002 301.875L262 302.75L262.002 303.498L263.75 305.745L264.5 305.75C265.009 306.762 265.031 307.099 266 307.75L266.002 308.498L267 308.75C267.35 309.446 267.543 310.009 267.755 310.75L269.25 311.5C269.876 313.972 272.646 314.151 273.002 316.998C273.674 317.669 273.476 317.743 274.5 317.75L274.255 318.75L275.75 319.5C276.074 320.782 276.999 320.808 277.002 321.997L278 322.25C278.528 323.299 278.343 322.722 278.502 323.998L279.5 324.25L280.25 325.745L281 325.75L281.75 327.245L282.875 327.125L282.255 327.75L283 328.25L283.002 328.998L283.75 329L284.5 329.25L284.255 330.25L285.75 331L286.002 331.998C287.096 332.274 287.433 333.242 288.255 333.25C288.967 333.807 289.631 334.344 290.255 335C290.255 335.864 290.057 336.3 290.755 337L291.5 337.5C292.12 337.999 292.347 338.571 292.65 339.286L275.799 351.652C272.7 353.913 269.448 356.648 266.091 358.476L265.649 358.153C264.555 358.279 265.01 358.109 264.136 358.623L263.502 359.002C262.423 359.417 261.691 359.578 260.685 360.257L260.208 360.595C260.911 359.468 261.445 358.68 261.519 357.306C259.848 356.553 258.669 355.002 256.805 354.761L256.317 354.73C256.702 352.613 256.662 351.782 255.563 349.851L255.192 349.242C253.943 347.162 251.639 345.387 250.697 343.358L250.507 342.802C247.695 341.472 246.633 337.954 244.492 335.733C243.975 335.197 243.543 334.897 243.073 334.279C242.244 333.188 241.475 332.044 240.447 331.128C239.834 330.58 240.077 330.865 239.544 330.125C238.338 328.45 236.443 325.235 234.868 324.131C234.25 323.698 234.433 323.934 234.034 323.316C233.125 321.911 231.976 320.827 230.998 319.502C229.92 318.045 227.262 316.102 226.739 314.498C225.99 312.201 222.884 309.731 221.371 307.682C220.895 307.037 220.469 306.456 219.897 305.886C218.622 304.616 217.822 302.893 216.5 301.761L216.076 301.42C215.523 300.662 214.848 300.056 214.357 299.309L213.989 298.733C213.484 298.068 212.899 297.513 212.453 296.795C211.934 295.958 211.527 295.166 210.773 294.508C209.871 293.721 209.206 293.347 208.692 292.242L208.4 291.601C207.604 290.295 204.37 287.93 202.858 287.735L202.25 287.701C201.381 287.453 200.807 286.503 200.345 285.806L200.37 285.261C200.329 284.095 199.805 283.213 198.979 282.417L198.498 282.001C198.272 281.302 197.807 280.238 197.913 279.475L198.058 279.008C198.486 277.588 199.35 277.124 200.514 276.323C201.281 275.795 201.155 275.343 201.367 274.465L201.362 274.439L224.98 257.2Z"/>
	<path fill="#41B0C7" transform="matrix(0.0322266 0 0 0.0322266 0 7.62939e-06)" d="M633.405 756.516L634.361 756.806C635.087 756.304 635.87 755.5 636.755 755.5L636.003 756.625L636.253 757.125L636.255 758.25L636.755 759C637.345 759.974 637.483 760.695 637.755 761.75C638.076 762.993 638.986 763.759 639.875 764.625L640.003 765.497L641 766.25L641.003 766.997L642.5 768.25L642.503 768.997L643.5 769.75L643.503 770.497L644.5 770.75L644.255 771.75C644.991 772.486 644.908 772.743 646 772.75L646.378 773.5C646.776 774.164 647.453 774.71 648 775.25L648.003 775.997L649 776.75L649.003 777.497C649.674 778.169 649.476 778.243 650.5 778.25L650.878 779C651.276 779.664 651.953 780.21 652.5 780.75L652.503 781.497L654.25 783.745L655 783.75C655.649 784.399 655.999 784.419 656.003 785.375L657 786.25L657.003 786.997L658.5 788.25L658.503 788.997L659.5 789.25C660.028 790.299 659.843 789.722 660.003 790.997C661.066 791.267 661.213 791.463 662 792.25L662.003 792.875L663 793.75L663.003 794.497C663.674 795.169 663.476 795.243 664.5 795.25L664.878 796C665.276 796.664 665.953 797.21 666.5 797.75L666.503 798.375L667.5 799.25L667.503 799.997L669.25 802.245L670 802.25L670.378 803C670.776 803.664 671.453 804.21 672 804.75L672.003 805.497L673.75 807.745L674.5 807.75C675.149 808.399 675.499 808.419 675.503 809.375L676.5 810.25L676.503 810.997C677.174 811.669 676.976 811.743 678 811.75L677.755 812.75L679.25 813.5L679.503 814.375L681.5 816.25L681.503 816.997L682.5 817.75L682.503 818.497L683.5 818.75C684.028 819.799 683.843 819.222 684.003 820.497C685.066 820.767 685.213 820.963 686 821.75L686.003 822.375L687 823.25L687.003 823.997L688.75 826.245L689.5 826.25C690.236 826.986 690.499 826.906 690.503 827.997C691.174 828.669 690.976 828.743 692 828.75L691.755 829.75C692.687 830.216 693.288 830.487 694 831.25L694.003 831.997C694.674 832.669 694.476 832.743 695.5 832.75L696.25 833.745L697 833.75L697.422 834.216C698.033 834.824 698.461 834.983 699.255 835.25L698.755 836.75L700.875 838.747C700.156 839.601 699.928 839.924 698.875 840.375L698.68 840.896L699.334 841.207L672.688 861.089C672.38 860.745 672.594 860.945 671.896 860.583L671.272 860.265L671.328 859.035L669.035 856.878C667.663 856.848 666.651 855.96 665.55 855.227C665.382 854.219 665.378 854.662 665.55 853.563L665.692 852.751C662.207 846.839 657.687 842.403 653.529 837.096C652.615 835.929 652.284 834.528 650.991 833.692C649.075 832.452 648.334 830.258 646.897 828.526C645.658 827.035 644.11 825.699 643.029 824.096C642.166 822.817 641.793 821.555 640.427 820.707C638.503 819.514 637.28 816.355 635.579 814.617C634.793 813.814 634.157 812.769 633.396 812.026C632.147 810.805 631.212 809.847 630.08 808.444L624.371 801.309C623.864 800.563 624.17 800.894 623.549 800.324C621.937 798.846 620.956 796.259 619.368 795.123C617.986 794.133 617.352 792.529 616.439 791.139C615.249 789.325 612.153 787.225 610.02 786.996L609.499 787.003C608.925 785.923 608.414 784.98 608.339 783.734L608.306 782.876C607.408 782.315 606.843 781.931 606.225 781.038C605.05 779.339 605.554 778.437 605.859 776.536L633.405 756.516Z"/>
	<defs>
		<linearGradient id="gradient_2" gradientUnits="userSpaceOnUse" x1="397.56665" y1="607.34515" x2="685.22162" y2="381.69864">
			<stop offset="0" stop-color="#71ACE0"/>
			<stop offset="1" stop-color="#BB63F4"/>
		</linearGradient>
	</defs>
	<path fill="url(#gradient_2)" transform="matrix(0.0322266 0 0 0.0322266 0 7.62939e-06)" d="M512.037 266.563C514.333 266.584 515.51 267.12 517.421 268.379C527.707 275.16 537.544 283.15 547.5 290.444L605.699 332.659L667.981 377.765C680.199 386.561 693.247 394.943 704.82 404.57L704.527 546.971L704.631 589.87C704.682 597.57 705.372 605.777 704.608 613.416C704.326 616.238 703.164 617.957 701.176 619.924C695.228 625.809 687.268 630.344 680.438 635.204L647.22 659.311L568.234 716.592L513.004 756.651C511.619 752.209 512.172 747.676 512.176 743.085L512.143 722.03L512.017 649.546L511.878 322.847C512.56 317.83 511.907 311.834 511.897 306.729L512.037 266.563Z"/>
	<defs>
		<linearGradient id="gradient_3" gradientUnits="userSpaceOnUse" x1="613.28992" y1="421.84604" x2="340.97064" y2="639.94135">
			<stop offset="0" stop-color="#9D9CE9"/>
			<stop offset="1" stop-color="#54DDE7"/>
		</linearGradient>
	</defs>
	<path fill="url(#gradient_3)" transform="matrix(0.0322266 0 0 0.0322266 0 7.62939e-06)" d="M493.506 278.049L503.457 270.862C506.052 268.986 508.718 266.736 512.037 266.563L511.897 306.729C511.907 311.834 512.56 317.83 511.878 322.847L512.017 649.546L512.143 722.03L512.176 743.085C512.172 747.676 511.619 752.209 513.004 756.651L511.484 757.357C508.343 757.062 502.882 751.856 500.141 749.845L470.14 727.86L371.939 656.428L345.737 637.612C339.532 633.268 332.634 629.309 327.205 623.987C323.954 620.8 321.665 617.169 320.643 612.692C318.955 605.294 320.056 596.314 320.073 588.715L319.969 545.533L320.068 513.23L320.096 440.068L320.054 419.737C320.051 415.254 319.774 410.637 320.577 406.211C321.011 403.819 322.396 401.862 324.239 400.319C330.476 395.096 337.776 390.59 344.434 385.87L377.48 362.01L493.506 278.049Z"/>
	<path fill="#9C9BEA" transform="matrix(0.0322266 0 0 0.0322266 0 7.62939e-06)" d="M493.506 278.049L503.457 270.862C506.052 268.986 508.718 266.736 512.037 266.563L511.897 306.729C511.907 311.834 512.56 317.83 511.878 322.847C510.456 321.827 511.688 311.88 511.121 309.375C509.969 304.282 510.755 297.572 510.755 292.309C509.519 295.059 508.992 298.075 507.802 300.656L506.481 299.894C506.321 299.056 506.137 298.534 505.682 297.812L505.236 300.77L504.439 300.61C504.185 298.523 503.773 295.964 504.167 293.907C504.748 290.87 498.39 286.622 497.879 283.575C497.733 282.704 497.601 282.114 497.279 281.28L496.002 281.458C495.196 280.594 495.266 280.597 495.237 279.404L493.506 278.049Z"/>
</svg>
